# xmcd CD database file
#
# Track frame offsets:
#	150
#	12056
#	20992
#	30154
#	45108
#	59474
#	72762
#	82593
#	94148
#	107602
#	123963
#	137743
#
# Disc length: 2137 seconds
#
# Revision: 0
# Processed by: cddbd v1.5.2PL0 Copyright (c) Steve Scherf et al.
# Submitted via: CDex 1.70beta2
#
DISCID=8608570c
DTITLE=CF - Country Favorites - D2
DYEAR=1900
DGENRE=Country
TTITLE0=Good Bless the U.S.A. - Lee Greenwood
TTITLE1=Why Don't Mommy Stay With Daddy and Me - Buck Owens
TTITLE2=Mr. Love Maker - Johnny Paycheck
TTITLE3=Get Your Kick's On Route 66 - Asleep At the Wheel
TTITLE4=Darlene - T. Graham Brown
TTITLE5=Patches - Alabama
TTITLE6=King of the Road - Boxcar Willie
TTITLE7=You're My Man - Lynn Anderson
TTITLE8=O Can't Stop Loving You - Freddy Fender
TTITLE9=Always Have, Always Will - Janie Frickie
TTITLE10=16th Avenue - Lacy J. Dalton
TTITLE11=Maybe It Was Memphis - Pam Tillis
EXTD=
EXTT0=
EXTT1=
EXTT2=
EXTT3=
EXTT4=
EXTT5=
EXTT6=
EXTT7=
EXTT8=
EXTT9=
EXTT10=
EXTT11=
PLAYORDER=
